<svg width="21" height="20" viewBox="0 0 21 20" fill="none" xmlns="http://www.w3.org/2000/svg">
<path d="M20.3152 10.2087H7.07599C6.69799 10.2087 6.39121 9.91676 6.39121 9.55707C6.39121 9.19738 6.69799 8.90545 7.07599 8.90545H20.3152C20.6932 8.90545 21 9.19738 21 9.55707C21 9.91676 20.6932 10.2087 20.3152 10.2087Z" fill="#EF574B"/>
<path d="M10.7283 13.6839C10.5529 13.6839 10.3777 13.6205 10.2443 13.4928L6.5922 10.0176C6.32471 9.76288 6.32471 9.35022 6.5922 9.09568L10.2443 5.62046C10.5118 5.36592 10.9455 5.36592 11.2131 5.62046C11.4806 5.87499 11.4806 6.28766 11.2131 6.5422L8.04485 9.55703L11.2131 12.5719C11.4806 12.8264 11.4806 13.2391 11.2131 13.4936C11.0789 13.6205 10.9035 13.6839 10.7283 13.6839Z" fill="#EF574B"/>
<path d="M10.0435 19.1141C4.50592 19.1141 0 14.8264 0 9.55706C0 4.28767 4.50592 0 10.0435 0C14.1987 0 17.8674 2.3788 19.3912 6.061C19.53 6.39539 19.3565 6.77338 19.005 6.90622C18.6535 7.03667 18.2562 6.87408 18.1166 6.53793C16.8009 3.35797 13.6318 1.30323 10.0435 1.30323C5.26092 1.30323 1.36956 5.00626 1.36956 9.55706C1.36956 14.1079 5.26092 17.8109 10.0435 17.8109C13.6318 17.8109 16.8009 15.7561 18.1166 12.5771C18.2554 12.2408 18.6526 12.0784 19.005 12.2087C19.3565 12.3407 19.53 12.7195 19.3912 13.0541C17.8674 16.7353 14.1987 19.1141 10.0435 19.1141Z" fill="#EF574B"/>
</svg>
