<svg width="24" height="16" viewBox="0 0 24 16" fill="none" xmlns="http://www.w3.org/2000/svg">
<path d="M0.402024 8.91335L0.40326 8.91458L7.56514 15.6243C8.10168 16.1269 8.9695 16.125 9.50357 15.6199C10.0376 15.1148 10.0355 14.2978 9.49898 13.7951L4.69049 9.29032L22.6294 9.29032C23.3864 9.29032 24 8.71265 24 8C24 7.28735 23.3864 6.70968 22.6294 6.70968L4.69056 6.70968L9.49891 2.2049C10.0354 1.70219 10.0375 0.885221 9.5035 0.380125C8.96943 -0.125102 8.10154 -0.126844 7.56507 0.375738L0.403191 7.08542L0.401957 7.08664C-0.134855 7.59103 -0.133142 8.41064 0.402024 8.91335Z" fill="black"/>
<path d="M0.402024 8.91335L0.40326 8.91458L7.56514 15.6243C8.10168 16.1269 8.9695 16.125 9.50357 15.6199C10.0376 15.1148 10.0355 14.2978 9.49898 13.7951L4.69049 9.29032L22.6294 9.29032C23.3864 9.29032 24 8.71265 24 8C24 7.28735 23.3864 6.70968 22.6294 6.70968L4.69056 6.70968L9.49891 2.2049C10.0354 1.70219 10.0375 0.885221 9.5035 0.380125C8.96943 -0.125102 8.10154 -0.126844 7.56507 0.375738L0.403191 7.08542L0.401957 7.08664C-0.134855 7.59103 -0.133142 8.41064 0.402024 8.91335Z" fill="black"/>
</svg>
